{"title":"Avril Lavigne - Wish You Were Here_DivX HD[2011-UJ.rip]","uid":6664277,"size":77597452,"categoryP":"video","categoryS":"music_videos","magnet":"?xt=urn:btih:be17aa3863e0dbc56deaa945987e4f5bcbc8abb9&amp;dn=Avril+Lavigne+-+Wish+You+Were+Here_DivX+HD%5B2011-UJ.rip%5D&amp;tr=udp%3A%2F%2Ftracker.openbittorrent.com%3A80&amp;tr=udp%3A%2F%2Fopen.demonii.com%3A1337&amp;tr=udp%3A%2F%2Ftracker.coppersurfer.tk%3A6969&amp;tr=udp%3A%2F%2Fexodus.desync.com%3A6969","seeders":0,"leechers":0,"uploader":"utpaljoshi123","files":43,"time":1315632289,"description":"Info\n-----------------------------------------------------------------------\nComplete name                    : Avril Lavigne - Wish You Were Here_DivX HD[2011-UJ.rip].avi\nFormat                           : AVI\nFormat/Info                      : Audio Video Interleave\nFile size                        : 72.9 MiB\nDuration                         : 3mn 46s\nOverall bit rate                 : 2 700 Kbps\nWriting application              : Lavf52.39.1\n-----------------------------------------------------------------------\nVideo\nID                               : 0\nFormat                           : MPEG-4 Visual\nFormat profile                   : Advanced Simple@L1\nFormat settings, BVOP            : 2\nFormat settings, QPel            : No\nFormat settings, GMC             : No warppoints\nFormat settings, Matrix          : Default (H.263)\nCodec ID                         : divx\nCodec ID/Info                    : Mainly used by Google\nCodec ID/Hint                    : DivX\nDuration                         : 3mn 46s\nBit rate                         : 2 463 Kbps\nWidth                            : 1 280 pixels\nHeight                           : 768 pixels\nDisplay aspect ratio             : 16:9\nFrame rate                       : 24.000 fps\nColor space                      : YUV\nChroma subsampling               : 4:2:0\nBit depth                        : 8 bits\nScan type                        : Progressive\nCompression mode                 : Lossy\nBits/(Pixel*Frame)               : 0.104\nStream size                      : 66.5 MiB (91%)\nWriting library                  : Lavc52.37.0\n-----------------------------------------------------------------------\nAudio\nID                               : 1\nFormat                           : MPEG Audio\nFormat version                   : Version 1\nFormat profile                   : Layer 3\nMode                             : Joint stereo\nCodec ID                         : 55\nCodec ID/Hint                    : MP3\nDuration                         : 3mn 46s\nBit rate mode                    : Constant\nBit rate                         : 224 Kbps\nChannel(s)                       : 2 channels\nSampling rate                    : 48.0 KHz\nCompression mode                 : Lossy\nStream size                      : 6.05 MiB (8%)\nAlignment                        : Aligned on interleaves\nInterleave, duration             : 24 ms (0.58 video frame)\nWriting library                  : LAME3.96.1\n\n-----------------------------------------------------------------------\n-----------------------------------------------------------------------\n\nuled by\n &lt;a href=&quot;\nhttp://thepiratebay.se/user/utpaljoshi123&quot; rel=&quot;nofollow&quot; target=&quot;_NEW&quot;&gt;\nhttp://thepiratebay.se/user/utpaljoshi123&lt;/a&gt;","torrent":{"xt":"urn:btih:be17aa3863e0dbc56deaa945987e4f5bcbc8abb9","amp;dn":"Avril+Lavigne+-+Wish+You+Were+Here_DivX+HD%5B2011-UJ.rip%5D","amp;tr":["udp%3A%2F%2Ftracker.openbittorrent.com%3A80","udp%3A%2F%2Fopen.demonii.com%3A1337","udp%3A%2F%2Ftracker.coppersurfer.tk%3A6969","udp%3A%2F%2Fexodus.desync.com%3A6969"],"infoHash":"be17aa3863e0dbc56deaa945987e4f5bcbc8abb9","infoHashBuffer":{"type":"Buffer","data":[190,23,170,56,99,224,219,197,109,234,169,69,152,126,79,91,203,200,171,185]},"announce":[],"urlList":[]}}